<svg id="Table4" xmlns="http://www.w3.org/2000/svg">
  <title>Table4</title>
  
  <polygon points="11.5 74.5 166.5 122.5 385.5 46.5 233.5 10.5 11.5 74.5" fill="none" stroke="#000" stroke-linecap="round" stroke-linejoin="round" stroke-width="0.71"/>
  <polygon points="173.5 104.5 341.5 48.5 234.5 21.5 65.5 72.5 173.5 104.5" fill="none" stroke="#000" stroke-linecap="round" stroke-linejoin="round" stroke-width="0.71"/>
  <polygon points="58.5 223.5 40.5 216.5 33.5 98.5 51.5 104.5 58.5 223.5" fill="none" stroke="#000" stroke-linecap="round" stroke-linejoin="round" stroke-width="0.71"/>
  <polygon points="151.5 153.5 52.5 120.5 51.5 104.5 151.5 136.5 151.5 153.5" fill="none" stroke="#000" stroke-linecap="round" stroke-linejoin="round" stroke-width="0.71"/>
  <polygon points="73.5 127.5 52.5 120.5 58.5 223.5 78.5 216.5 73.5 127.5" fill="none" stroke="#000" stroke-linecap="round" stroke-linejoin="round" stroke-width="0.71"/>
  <polygon points="154.5 207.5 76.5 179.5 76.5 172.5 153.5 199.5 154.5 207.5" fill="none" stroke="#000" stroke-linecap="round" stroke-linejoin="round" stroke-width="0.71"/>
  <polygon points="173.5 267.5 156.5 261.5 150.5 136.5 168.5 141.5 173.5 267.5" fill="none" stroke="#000" stroke-linecap="round" stroke-linejoin="round" stroke-width="0.71"/>
  <polygon points="174.5 267.5 193.5 258.5 189.5 134.5 168.5 141.5 174.5 267.5" fill="none" stroke="#000" stroke-linecap="round" stroke-linejoin="round" stroke-width="0.71"/>
  <polygon points="192.5 208.5 335.5 150.5 335.5 142.5 191.5 200.5 192.5 208.5" fill="none" stroke="#000" stroke-linecap="round" stroke-linejoin="round" stroke-width="0.71"/>
  <polygon points="190.5 151.5 348.5 93.5 348.5 77.5 189.5 134.5 190.5 151.5" fill="none" stroke="#000" stroke-linecap="round" stroke-linejoin="round" stroke-width="0.71"/>
  <polyline points="330.8 98.9 331.5 185.5 349.5 191.5 348.5 93.5" fill="none" stroke="#000" stroke-linecap="round" stroke-linejoin="round" stroke-width="0.71"/>
  <polyline points="366.5 70.5 367.5 183.5 349.5 191.5 348.5 77.5" fill="none" stroke="#000" stroke-linecap="round" stroke-linejoin="round" stroke-width="0.71"/>
  <polygon points="167.5 142.5 385.5 64.5 386.5 46.5 166.5 122.5 167.5 142.5" fill="none" stroke="#000" stroke-linecap="round" stroke-linejoin="round" stroke-width="0.71"/>
  <polyline points="33.5 98.5 11.5 91.5 11.5 74.5" fill="none" stroke="#000" stroke-linecap="round" stroke-linejoin="round" stroke-width="0.71"/>

</svg>
